<?xml version="1.0" standalone="no"?><!-- Generator: Gravit.io --><svg xmlns="http://www.w3.org/2000/svg" xmlns:xlink="http://www.w3.org/1999/xlink" style="isolation:isolate" viewBox="0 0 100 100" width="100" height="100"><defs><clipPath id="_clipPath_X6XdwMVFxeBB6urY5ZoQ2C88p9j8UHLR"><rect width="100" height="100"/></clipPath></defs><g clip-path="url(#_clipPath_X6XdwMVFxeBB6urY5ZoQ2C88p9j8UHLR)"><g><path d=" M 72.291 75.734 L 72.117 69.829 L 60.475 70.866 L 75.068 63.224 L 76.983 69.652 L 90.015 68.091 L 72.291 75.734 Z  M 31.628 9.702 L 30.066 22.735 L 36.495 24.65 L 28.85 39.243 L 29.718 27.771 L 23.984 27.427 L 31.628 9.702 Z " fill="rgb(255,193,7)"/><path d=" M 59.5 56.723 L 66.334 63.558 L 60.893 69 L 54.056 62.163 L 59.5 56.723 Z  M 36.53 33.508 L 43.365 40.344 L 37.925 45.786 L 31.089 38.949 L 36.53 33.508 Z " fill="rgb(3,169,244)"/><path d=" M 91.953 7.889 C 87.98 3.906 82.585 1.667 76.959 1.667 C 71.333 1.667 65.938 3.906 61.964 7.889 L 36.313 33.539 L 43.028 40.244 C 50.518 32.746 66.504 16.768 68.679 14.593 C 73.209 10.055 80.517 10.055 85.047 14.593 C 89.588 19.131 89.588 26.432 85.047 30.97 L 59.397 56.621 L 66.111 63.329 L 91.762 37.679 C 100.047 29.591 100.047 16.172 91.953 7.887 L 91.953 7.889 Z " fill="rgb(244,67,54)"/></g><g><path d=" M 24.758 82.821 L 12.126 70.19 C -3.032 55.032 8.062 43.938 8.062 43.938 L 10.036 41.964 C 10.036 41.964 20.901 31.099 36.288 46.028 L 48.919 58.66 L 24.758 82.821 Z " fill="rgb(207,216,220)"/><path d=" M 17.179 75.242 L 29.81 87.874 C 44.968 103.032 56.062 91.938 56.062 91.938 L 58.036 89.964 C 58.036 89.964 68.901 79.099 53.972 63.712 L 41.34 51.081 L 17.179 75.242 Z " fill="rgb(244,67,54)"/><path d=" M 24.957 54.832 C 26.353 56.227 26.582 58.26 25.47 59.372 C 24.358 60.484 22.326 60.254 20.93 58.859 L 14.615 52.543 C 13.219 51.148 12.99 49.116 14.102 48.004 C 15.214 46.892 17.246 47.121 18.642 48.516 L 24.957 54.832 Z " fill="rgb(55,71,79)"/></g></g></svg>