<?xml version="1.0" standalone="no"?>
<!-- Generator: Gravit.io --><svg xmlns="http://www.w3.org/2000/svg" xmlns:xlink="http://www.w3.org/1999/xlink" style="isolation:isolate"
    viewBox="0 0 360 360" width="360" height="360">
    <defs>
        <clipPath id="_clipPath_AOqBu9OVSW8rKxLNSsrElUJAhHaSvXSK">
            <rect width="360" height="360" />
        </clipPath>
    </defs>
    <g clip-path="url(#_clipPath_AOqBu9OVSW8rKxLNSsrElUJAhHaSvXSK)">
        <rect width="360" height="360" style="fill:rgb(0,0,0)" />
        <path d=" M 10 180 C 10 86.174 86.174 10 180 10 C 273.826 10 350 86.174 350 180 C 350 273.826 273.826 350 180 350 C 86.174 350 10 273.826 10 180 Z  M 252.706 49.564 C 228.691 40.906 191.494 51.52 193.397 83.178 L 193.397 83.178 L 195.509 94.442 C 194.611 95.623 193.87 96.909 193.225 98.243 C 191.695 101.405 190.677 104.801 189.806 108.194 C 189.554 109.175 188.755 111.477 188.727 112.732 C 188.593 118.617 194.72 123.352 194.385 128.391 C 194.385 128.391 178.111 120.586 178.111 120.586 C 178.027 118.465 179.249 116.825 181.084 115.931 C 181.084 115.931 189.299 110.967 189.299 110.967 C 186.461 109.793 177.973 116.109 175.958 117.399 C 172.711 119.478 178.587 133.769 180.858 136.751 C 182.534 138.952 186.371 138.207 188.623 137.626 L 188.623 137.626 L 194.167 136.438 L 194.695 134.722 C 184.8 136.901 181.256 139.097 178.819 127.889 C 177.573 122.159 178.298 123.456 182.954 125.391 C 185.176 126.315 192.96 127.272 194.695 129.574 C 196.202 131.575 194.044 136.661 193.774 138.853 C 192.74 147.246 192.192 154.467 193.617 162.885 C 195.241 172.48 199.88 182.405 204.903 190.689 C 209.468 198.217 217.785 196.721 219.041 207.053 C 219.629 211.892 220.506 218.602 219.619 223.471 C 219.392 224.716 217.996 225.015 217.027 225.763 C 206.189 234.127 202.182 237.127 188.023 241.246 C 188.023 241.246 182.072 242.875 182.072 242.875 C 175.845 244.847 169.911 247.625 164.828 251.781 C 149.901 263.991 145.615 287.224 139.68 303.908 C 137.171 310.96 129.155 325.169 131.404 334.354 C 132.711 339.696 143.921 343.088 145.944 346.648 C 224.25 361 307 329 343.124 228.135 C 341.362 226.07 339.228 224.437 336.667 223.471 C 328 221.063 313.896 214.98 307.14 212.835 C 297.709 209.84 286.752 202.492 285.62 191.282 C 285.417 189.278 285.356 188.081 285.365 186.05 C 285.503 155.33 311.252 134.112 305.543 102.172 C 305.239 100.475 304.891 98.785 304.509 97.104 C 299.844 76.57 295.063 68.139 275.233 60.123 L 275.233 60.123 L 252.706 49.564 Z  M 212.184 112.733 C 211.543 108.898 214.079 105.603 219.773 102.833 C 225.299 100.021 230.32 98.112 234.821 97.091 C 240.144 95.139 243.009 96.86 243.4 102.239 L 243.664 111.809 C 244.032 116.018 242.607 118.883 239.375 120.388 C 233.274 122.81 228.065 124.575 223.733 125.668 C 220.481 126.396 218.331 125.807 217.266 123.886 C 218.752 121.058 216.359 116.29 212.184 112.733 Z  M 248.812 94.847 C 253.015 95.744 260.126 97.884 270.129 101.249 L 271.581 102.239 L 281.943 105.737 L 289.631 109.433 C 290.757 110.011 291.081 110.731 290.588 111.578 C 289.945 112.162 288.614 112.513 287.223 111.347 C 286.079 111.216 284.071 110.177 281.184 108.212 C 281.499 107.185 280.844 106.355 279.204 105.704 L 269.271 102.767 C 257.968 100.287 253.112 99.038 251.386 98.081 C 250.924 98.037 250.775 97.778 250.924 97.289 L 248.878 96.233 L 248.812 94.847 Z  M 291.974 117.88 C 294.866 111.195 297.467 109.771 299.762 113.59 C 302.172 118.433 302.772 123.146 301.544 127.714 C 301.082 133.852 299.795 138.011 296.264 139.989 L 294.482 136.557 C 298.748 134.488 301.398 133.179 300.422 127.846 C 300.133 125.335 299.432 120.718 296.462 119.398 C 295.142 118.408 293.652 117.908 291.974 117.88 Z  M 190.075 110.951 C 189.569 111.611 189.552 112.1 190.009 112.403 C 198.997 110.645 203.314 111.97 202.944 116.362 L 202.086 120.19 C 203.72 116.404 205.111 114.21 206.244 113.59 C 207.688 112.905 208.749 112.756 209.412 113.128 C 208.838 110.281 209.459 107.888 211.26 105.935 C 209.16 108.396 204.919 109.677 198.522 109.763 C 195.882 109.807 193.072 110.208 190.075 110.951 Z  M 196.388 90.095 C 197.282 87.466 199.693 83.775 203.604 79.008 C 207.329 73.59 210.15 70.193 212.052 68.8 C 217.464 66.798 219.328 62.608 231.587 62.641 C 235.405 63.152 238.05 63.862 240.915 63.521 C 242.433 63.608 245.694 63.834 249.274 65.413 L 252.882 68.624 C 259.347 73.929 263.752 81.736 266.081 92.031 C 267.221 95.152 270.864 98.56 276.993 102.239 C 283.291 104.047 288.107 106.34 291.424 109.103 C 291.952 109.484 292.779 109.724 293.888 109.807 C 299.3 107.156 302.707 110.798 304.096 120.718 C 303.126 106.56 301.664 96.358 299.696 90.095 C 298.922 77.8 290.011 69.534 273.649 62.465 L 253.762 52.609 C 221.238 45.588 201.713 54.046 195.157 80.416 C 194.746 82.86 195.161 86.092 196.388 90.095 Z  M 275.079 106.133 C 276.349 108.467 279.83 110.364 287.091 113.26 C 282.942 116.511 281.276 122.016 280.491 128.308 C 278.896 119.654 277.097 112.268 275.079 106.133 Z  M 200.172 143.157 C 198.343 140.245 197.087 137.522 196.388 134.974 C 194.429 131.973 196.004 127.798 201.096 122.434 C 198.534 126.233 197.241 129.252 197.202 131.476 C 202.35 125.338 214.956 128.374 219.575 134.974 C 208.409 131.107 201.954 129.628 199.578 131.872 C 197.598 132.994 197.416 136.841 200.172 143.157 Z  M 231.587 156.093 C 221.609 150.304 213.174 149.229 209.676 153.189 C 206.112 152.265 201.415 157.901 199.732 166.256 C 203.548 160.681 207.308 157.695 210.996 157.281 C 213.46 155.68 221.121 154.498 231.587 156.093 Z  M 201.228 166.916 C 203.736 162.56 206.498 159.998 210.732 159.788 C 216.54 156.885 223.409 155.922 231.323 156.885 C 219.437 163.143 209.059 166.492 201.228 166.916 Z  M 205.188 188.035 C 212.402 196.163 225.958 194.276 245.842 182.359 C 262.793 172.38 274.15 161.87 279.897 150.813 C 281.043 153.78 289.408 153.565 291.776 153.585 C 288.193 154.234 280.9 168.148 283.065 191.863 C 284.32 196.66 286.042 200.273 291.644 207.174 C 292.084 209.638 292.838 212.591 290.456 211.53 C 278.176 198.005 279.308 175.579 284.649 157.017 C 284.83 154.178 281.475 154.773 281.745 154.509 C 254.686 183.415 219.616 203.03 206.64 191.071 L 205.188 188.035 Z  M 212.448 230.933 C 211.326 234.761 210.798 246.905 214.164 249.809 C 222.642 257.563 233.163 258.361 245.71 252.184 C 258.7 248.251 278.196 235.453 304.184 213.774 L 296.792 211.002 C 295.379 210.682 286.258 216.932 285.309 219.186 C 270.796 230.971 266.111 234.058 255.346 238.985 C 233.001 250.911 219.763 251.708 215.616 241.361 C 214.076 239.469 212.057 232.303 212.448 230.933 Z  M 147.639 329.269 C 147.958 333.206 148.035 338.443 146.583 336.661 C 144.24 334.978 134.123 328.414 132.855 330.457 C 132.34 332.284 132.572 333.872 133.119 334.417 C 133.147 335.785 143.943 341.743 145.263 343.195 L 154.326 347.22 C 152.468 327.028 146.724 309.845 147.287 298.822 C 145.608 306.552 147.721 316.351 147.639 329.269 Z "
            fill-rule="evenodd" fill="rgb(235,235,235)" />
    </g>
</svg>