<?xml version="1.0" standalone="no"?>
<!-- Generator: Gravit.io --><svg xmlns="http://www.w3.org/2000/svg" xmlns:xlink="http://www.w3.org/1999/xlink" style="isolation:isolate"
    viewBox="0 0 33 36" width="33" height="36">
    <defs>
        <clipPath id="_clipPath_i5fy1BtKu5dgRhdAHxrAuC6sUw1I9nex">
            <rect width="33" height="36" />
        </clipPath>
    </defs>
    <g clip-path="url(#_clipPath_i5fy1BtKu5dgRhdAHxrAuC6sUw1I9nex)">
        <path d=" M 18.028 17.1 C 18.028 15.996 18.895 15.1 19.963 15.1 C 21.031 15.1 21.898 15.996 21.898 17.1 C 21.898 18.204 21.031 19.1 19.963 19.1 C 18.895 19.1 18.028 18.204 18.028 17.1 Z  M 11.102 17.1 C 11.102 15.996 11.969 15.1 13.037 15.1 C 14.105 15.1 14.972 15.996 14.972 17.1 C 14.972 18.204 14.105 19.1 13.037 19.1 C 11.969 19.1 11.102 18.204 11.102 17.1 Z  M 29.028 0 L 3.87 0 C 1.767 -0.012 0.043 1.635 0 3.7 L 0 28 C 0.004 28.998 0.416 29.952 1.144 30.648 C 1.872 31.344 2.854 31.723 3.87 31.7 L 25.259 31.7 L 24.241 28.4 L 26.685 30.5 L 28.926 32.5 L 33 35.9 L 33 3.7 C 32.873 1.633 31.137 0.016 29.028 0 Z  M 21.796 23.5 C 21.796 23.5 21.083 22.7 20.574 22 C 21.903 21.691 23.087 20.951 23.935 19.9 C 23.243 20.304 22.529 20.671 21.796 21 C 20.91 21.358 19.988 21.626 19.046 21.8 C 17.427 22.051 15.777 22.051 14.157 21.8 C 13.213 21.636 12.291 21.367 11.407 21 C 11 20.8 10.491 20.6 9.981 20.4 C 9.88 20.4 9.88 20.3 9.778 20.3 L 9.676 20.3 C 9.512 20.191 9.342 20.091 9.167 20 C 9.987 21.034 11.133 21.773 12.426 22.1 C 11.815 22.8 11.204 23.6 11.204 23.6 C 7.028 23.5 5.5 20.9 5.5 20.9 C 5.567 17.237 6.509 13.64 8.25 10.4 C 9.766 9.233 11.621 8.568 13.546 8.5 L 13.75 8.7 C 11.949 9.049 10.267 9.84 8.861 11 C 8.861 11 9.269 10.8 9.981 10.5 C 11.337 9.906 12.782 9.535 14.259 9.4 L 14.565 9.4 C 15.816 9.25 17.082 9.25 18.333 9.4 C 20.324 9.623 22.256 10.199 24.037 11.1 C 22.662 10.012 21.064 9.228 19.352 8.8 L 19.657 8.5 C 21.583 8.568 23.437 9.233 24.954 10.4 C 26.695 13.64 27.637 17.237 27.704 20.9 C 26.195 22.544 24.05 23.488 21.796 23.5 Z "
            fill-rule="evenodd" fill="rgb(0,0,0)" />
    </g>
</svg>