<?xml version="1.0" standalone="no"?><!-- Generator: Gravit.io --><svg xmlns="http://www.w3.org/2000/svg" xmlns:xlink="http://www.w3.org/1999/xlink" style="isolation:isolate" viewBox="0 0 150 100" width="150" height="100"><defs><clipPath id="_clipPath_Lvltp9W8UTYh97F2cnQZTFgnDRagM3ox"><rect width="150" height="100"/></clipPath></defs><g clip-path="url(#_clipPath_Lvltp9W8UTYh97F2cnQZTFgnDRagM3ox)"><path d=" M 120.651 10 C 120.651 8.669 121.18 7.4 122.111 6.459 C 123.051 5.53 124.321 4.999 125.651 5 C 126.981 4.999 128.251 5.53 129.19 6.459 C 130.121 7.4 130.651 8.669 130.651 10 C 131.113 32.014 131.123 52.004 130.651 69.999 C 130.651 71.33 130.121 72.599 129.19 73.54 C 128.251 74.47 126.981 75 125.651 74.999 C 124.321 75 123.051 74.47 122.111 73.54 C 121.18 72.599 120.651 71.33 120.651 69.999 C 119.778 51.012 119.788 31.002 120.651 10 Z " fill="rgb(0,0,0)"/><path d=" M 90.855 89.999 C 90.855 91.33 90.325 92.599 89.395 93.54 C 88.455 94.47 87.185 95 85.855 94.999 C 84.525 95 83.255 94.47 82.315 93.54 C 81.385 92.599 80.855 91.33 80.855 89.999 C 79.725 68.653 79.705 48.673 80.855 30 C 80.855 28.669 81.385 27.4 82.315 26.459 C 83.255 25.53 84.525 24.999 85.855 25 C 87.185 24.999 88.455 25.53 89.395 26.459 C 90.325 27.4 90.855 28.669 90.855 30 C 91.394 49.641 91.383 69.651 90.855 89.999 Z " fill="rgb(0,0,0)"/></g></svg>