<?xml version="1.0" standalone="no"?><!-- Generator: Gravit.io --><svg xmlns="http://www.w3.org/2000/svg" xmlns:xlink="http://www.w3.org/1999/xlink" style="isolation:isolate" viewBox="0 0 150 100" width="150" height="100"><defs><clipPath id="_clipPath_hCYPMvjVy107hS4i2LnYi8mZmQRYLZLk"><rect width="150" height="100"/></clipPath></defs><g clip-path="url(#_clipPath_hCYPMvjVy107hS4i2LnYi8mZmQRYLZLk)"><path d=" M 80 25 C 81.33 25 82.6 25.53 83.54 26.46 C 84.47 27.4 85 28.67 85 30 C 85 31.33 84.47 32.6 83.54 33.54 C 82.6 34.47 81.33 35 80 35 C 57.987 35.462 37.997 35.472 20 35 C 18.67 35 17.4 34.47 16.46 33.54 C 15.53 32.6 15 31.33 15 30 C 15 28.67 15.53 27.4 16.46 26.46 C 17.4 25.53 18.67 25 20 25 C 38.987 24.128 58.997 24.138 80 25 Z " fill="rgb(0,0,0)"/><path d=" M 130 65 C 131.33 65 132.6 65.53 133.54 66.46 C 134.47 67.4 135 68.67 135 70 C 135 71.33 134.47 72.6 133.54 73.54 C 132.6 74.47 131.33 75 130 75 C 108.654 76.129 88.674 76.149 70 75 C 68.67 75 67.4 74.47 66.46 73.54 C 65.53 72.6 65 71.33 65 70 C 65 68.67 65.53 67.4 66.46 66.46 C 67.4 65.53 68.67 65 70 65 C 89.641 64.462 109.651 64.472 130 65 Z " fill="rgb(0,0,0)"/></g></svg>