<?xml version="1.0" standalone="no"?><!-- Generator: Gravit.io --><svg xmlns="http://www.w3.org/2000/svg" xmlns:xlink="http://www.w3.org/1999/xlink" style="isolation:isolate" viewBox="0 0 150 100" width="150" height="100"><defs><clipPath id="_clipPath_GC3lvpRm3k4Paev5kpfpW4BBb2ieMLUS"><rect width="150" height="100"/></clipPath></defs><g clip-path="url(#_clipPath_GC3lvpRm3k4Paev5kpfpW4BBb2ieMLUS)"><path d=" M 113.897 21.471 C 114.838 20.53 116.11 20.007 117.433 20 C 118.755 20.007 120.028 20.53 120.968 21.471 C 121.909 22.411 122.432 23.684 122.439 25.006 C 122.432 26.329 121.909 27.601 120.968 28.542 C 105.729 44.435 91.601 58.577 78.542 70.968 C 77.601 71.909 76.329 72.432 75.006 72.439 C 73.684 72.432 72.411 71.909 71.471 70.968 C 70.53 70.028 70.007 68.755 70 67.433 C 70.007 66.11 70.53 64.838 71.471 63.897 C 84.28 49.854 98.436 35.712 113.897 21.471 Z " fill="rgb(0,0,0)"/><path d=" M 120.968 63.897 C 121.909 64.838 122.432 66.11 122.439 67.433 C 122.432 68.755 121.909 70.028 120.968 70.968 C 120.028 71.909 118.755 72.432 117.433 72.439 C 116.11 72.432 114.838 71.909 113.897 70.968 C 98.004 56.673 83.862 42.559 71.471 28.542 C 70.53 27.601 70.007 26.329 70 25.006 C 70.007 23.684 70.53 22.411 71.471 21.471 C 72.411 20.53 73.684 20.007 75.006 20 C 76.329 20.007 77.601 20.53 78.542 21.471 C 92.811 34.978 106.953 49.135 120.968 63.897 Z " fill="rgb(0,0,0)"/></g></svg>