<?xml version="1.0" standalone="no"?><!-- Generator: Gravit.io --><svg xmlns="http://www.w3.org/2000/svg" xmlns:xlink="http://www.w3.org/1999/xlink" style="isolation:isolate" viewBox="0 0 150 100" width="150" height="100"><defs><clipPath id="_clipPath_dfykfzf5VpjGglIJmAPFNIUWWumz0VGG"><rect width="150" height="100"/></clipPath></defs><g clip-path="url(#_clipPath_dfykfzf5VpjGglIJmAPFNIUWWumz0VGG)"><path d=" M 130 25 C 131.33 25 132.6 25.53 133.54 26.46 C 134.47 27.4 135 28.67 135 30 C 135 31.33 134.47 32.6 133.54 33.54 C 132.6 34.47 131.33 35 130 35 C 107.987 35.462 87.997 35.472 70 35 C 68.67 35 67.4 34.47 66.46 33.54 C 65.53 32.6 65 31.33 65 30 C 65 28.67 65.53 27.4 66.46 26.46 C 67.4 25.53 68.67 25 70 25 C 88.987 24.128 108.997 24.138 130 25 Z " fill="rgb(0,0,0)"/><path d=" M 95 65 C 96.33 65 97.6 65.53 98.54 66.46 C 99.47 67.4 100 68.67 100 70 C 100 71.33 99.47 72.6 98.54 73.54 C 97.6 74.47 96.33 75 95 75 C 73.654 76.129 53.674 76.149 35 75 C 33.67 75 32.4 74.47 31.46 73.54 C 30.53 72.6 30 71.33 30 70 C 30 68.67 30.53 67.4 31.46 66.46 C 32.4 65.53 33.67 65 35 65 C 54.641 64.462 74.651 64.472 95 65 Z " fill="rgb(0,0,0)"/></g></svg>