<?xml version="1.0" standalone="no"?><!-- Generator: Gravit.io --><svg xmlns="http://www.w3.org/2000/svg" xmlns:xlink="http://www.w3.org/1999/xlink" style="isolation:isolate" viewBox="0 0 470.013 402.009" width="470.013" height="402.009"><defs><clipPath id="_clipPath_qo7EAwTJ2yAj6GxzKPPVH2ED22KcmZdm"><rect width="470.013" height="402.009"/></clipPath></defs><g clip-path="url(#_clipPath_qo7EAwTJ2yAj6GxzKPPVH2ED22KcmZdm)"><path d=" M 10.25 279.5 C 4.708 283.667 5.093 286.843 11.375 289 L 104.625 324.5 C 105.167 323.333 106.635 323.343 109 324.5 L 154.25 341.375 C 157.336 342.876 158.305 344.136 157.125 345.125 L 267.125 386.25 C 274.625 389.917 281.135 389.093 286.625 383.75 L 395.375 281.75 C 396.957 278.53 395.05 276.123 389.625 274.5 L 367.375 267.125 L 366.125 268.25 L 167.25 206.125 L 168.375 205.125 L 151.375 200 C 144.719 198.463 138.771 199.515 133.5 203.125 L 10.25 279.5 Z " fill="none" vector-effect="non-scaling-stroke" stroke-width="2" stroke="rgb(72,72,72)" stroke-linejoin="miter" stroke-linecap="square" stroke-miterlimit="3"/><path d=" M 130.75 275.75 L 81.75 309.875 C 80.042 310.833 80.093 311.635 81.875 312.25 L 188 352.5 C 189.625 353.333 191.01 353.26 192.125 352.25 L 238.25 314.125 C 239.458 313.25 239.26 312.552 237.625 312 L 134.75 275.625 C 133.455 275.002 132.132 275.054 130.75 275.75 Z " fill="none" vector-effect="non-scaling-stroke" stroke-width="2" stroke="rgb(72,72,72)" stroke-linejoin="miter" stroke-linecap="square" stroke-miterlimit="3"/><path d=" M 396.125 279.25 C 397.519 279.919 399.279 277.721 401.375 272.625 L 450.625 70 C 451.333 64.208 448.302 60.51 441.5 58.875 L 193.875 8.125 C 187.968 6.979 184.561 9.989 183.625 17.125 L 146.125 193.375 C 146.042 196.625 147.135 198.718 149.375 199.625" fill="none" vector-effect="non-scaling-stroke" stroke-width="2" stroke="rgb(72,72,72)" stroke-linejoin="miter" stroke-linecap="square" stroke-miterlimit="3"/><path d=" M 6.375 284.875 C 6.083 287.679 7.343 289.605 10.125 290.625 L 105 327.375 C 121.009 331.349 138.269 337.901 156.75 347 L 266.5 390 C 274.033 392.651 280.71 391.869 286.5 387.625 L 394.5 287.25 C 396.411 285.498 396.125 282.813 396.063 280.125" fill="none" vector-effect="non-scaling-stroke" stroke-width="2" stroke="rgb(72,72,72)" stroke-linejoin="miter" stroke-linecap="square" stroke-miterlimit="3"/><path d=" M 309.063 39.031 C 311 39.656 310.469 42.313 308.313 41.75 C 306.688 40.906 307.313 38.625 309.063 39.031 Z " fill="none" vector-effect="non-scaling-stroke" stroke-width="2" stroke="rgb(72,72,72)" stroke-linejoin="miter" stroke-linecap="square" stroke-miterlimit="3"/><path d=" M 437 75.5 L 393 256 L 156.75 186 L 191.25 22.25 L 437 75.5 Z " fill="none" vector-effect="non-scaling-stroke" stroke-width="2" stroke="rgb(72,72,72)" stroke-linejoin="miter" stroke-linecap="square" stroke-miterlimit="3"/><path d=" M 66.375 249.125 L 324.125 339.563 C 326.083 340.479 327.635 340.489 328.75 339.563 L 384.313 287.563 C 384.821 286.623 384.31 285.925 382.75 285.438 L 135.438 206.375 C 134.078 206.099 132.953 206.223 132 206.688 L 66.5 247.375 C 64.958 248.125 64.927 248.718 66.375 249.125 Z " fill="none" vector-effect="non-scaling-stroke" stroke-width="2" stroke="rgb(72,72,72)" stroke-linejoin="miter" stroke-linecap="square" stroke-miterlimit="3"/></g></svg>