<?xml version="1.0" standalone="no"?>
<!-- Generator: Gravit.io --><svg xmlns="http://www.w3.org/2000/svg" xmlns:xlink="http://www.w3.org/1999/xlink" style="isolation:isolate"
    viewBox="0 0 283.465 283.465" width="283.465" height="283.465">
    <defs>
        <clipPath id="_clipPath_o32ImQDNVDeKlZS3oyvcm4erKFMHe8ij">
            <rect width="283.465" height="283.465" />
        </clipPath>
    </defs>
    <g clip-path="url(#_clipPath_o32ImQDNVDeKlZS3oyvcm4erKFMHe8ij)">
        <path d=" M 145 105 C 104.049 102.978 70.225 85.821 43.5 53.5 C 32.615 81.615 37.791 103.625 59 119.5 C 53 120.667 45.677 118.843 37 114 C 36.429 136.667 48.439 153.011 73 163 C 67.333 165.5 61.01 165.677 54 163.5 C 60.996 183.96 75.673 195.47 98 198 C 76.333 214.667 52.677 221.343 27 218 C 129 279 248 209.5 246 94.5 C 258.462 84.601 266.138 76.111 269 69 C 258.877 72.911 250.553 75.254 244 76 C 251.667 68.333 258.01 59.343 263 49 C 249.234 56.151 239.077 60.328 232.5 61.5 C 194.75 26.417 136.76 51.427 145 105 Z "
            fill="rgb(0,172,237)" />
    </g>
</svg>