<svg width="300" height="200" viewBox="0 0 300 200" fill="none" xmlns="http://www.w3.org/2000/svg">
<g clip-path="url(#clip0_1094_87)">
<path d="M300.131 199.412V125.475H285.811L285.76 172.955L265.346 125.475H250.975V199.412H265.346V151.729L285.912 199.412H300.131Z" fill="black"/>
<path d="M191.529 125.475V137.002H205.596V187.936H191.529V199.412H234.287V187.936H219.865V137.002H234.287V125.475H191.529Z" fill="black"/>
<path d="M142.646 199.412H157.17L179.564 125.475H163.822L151.229 173.717L149.857 178.744L148.588 173.768L136.045 125.475H120.303L142.646 199.412Z" fill="black"/>
<path d="M107.881 167.014V155.74H77.5137V137.104H112.857V125.475H63.1934V199.412H113.01V187.885H77.5137V167.014H107.881Z" fill="black"/>
<path d="M22.4199 169.045L40.7012 199.412H57.6621L31.8652 158.178L56.748 125.475H39.2793L21.3027 150.307L14.5996 159.346V125.475H0.279297V199.412H14.5996V177.627L22.4199 169.045Z" fill="black"/>
<path d="M300.046 0.279297H282.2L282.136 62.0054C282.093 65.033 281.773 67.6982 281.176 70.001C280.579 72.3037 279.684 74.2227 278.49 75.7578C277.381 77.2503 275.974 78.3804 274.268 79.1479C272.605 79.8729 270.686 80.2354 268.511 80.2354C266.507 80.2354 264.737 79.8942 263.202 79.2119C261.667 78.487 260.366 77.4209 259.3 76.0137C258.149 74.4785 257.275 72.5382 256.678 70.1929C256.123 67.8475 255.825 65.1183 255.782 62.0054L255.718 0.279297H237.744L237.68 62.0054C237.68 67.2078 238.405 71.856 239.855 75.9497C241.347 80.0008 243.437 83.4123 246.124 86.1841C248.81 88.9559 252.03 91.0667 255.782 92.5166C259.577 93.9665 263.82 94.6914 268.511 94.6914C273.5 94.6914 277.935 93.9665 281.816 92.5166C285.739 91.0667 289.065 88.9346 291.794 86.1201C294.481 83.3483 296.528 79.9368 297.935 75.8857C299.385 71.8346 300.11 67.2078 300.11 62.0054L300.046 0.279297Z" fill="black"/>
<path d="M223 53.7233V40.4024C223 36.2553 222.596 32.3387 221.789 28.6524C221.024 24.9661 219.898 21.5731 218.411 18.4733C217.052 15.7504 215.416 13.258 213.504 10.996C211.635 8.73396 209.447 6.80704 206.94 5.21524C204.433 3.53966 201.608 2.26203 198.464 1.38235C195.362 0.460784 192.027 0 188.458 0C184.932 0 181.66 0.43984 178.644 1.31952C175.627 2.1992 172.908 3.45588 170.486 5.08957C168.022 6.76515 165.834 8.77585 163.922 11.1217C162.053 13.4675 160.46 16.0856 159.142 18.9759C157.783 22.0339 156.742 25.3641 156.02 28.9666C155.34 32.5691 155 36.381 155 40.4024V53.7233C155 57.4933 155.297 61.0749 155.892 64.4679C156.53 67.861 157.443 71.0027 158.633 73.893C159.95 77.0348 161.585 79.8623 163.54 82.3757C165.494 84.8471 167.704 86.9626 170.168 88.7219C172.674 90.3975 175.457 91.6961 178.516 92.6176C181.575 93.5392 184.911 94 188.522 94C191.921 94 195.086 93.5811 198.018 92.7433C200.992 91.9474 203.711 90.8164 206.175 89.3503C208.894 87.6747 211.316 85.5802 213.44 83.0668C215.565 80.5535 217.349 77.7888 218.794 74.7727C220.153 71.7567 221.194 68.4893 221.917 64.9706C222.639 61.41 223 57.6609 223 53.7233ZM204.837 40.2767V53.7233C204.837 55.9853 204.709 58.1635 204.455 60.258C204.242 62.3525 203.902 64.2794 203.435 66.0388C202.84 68.3008 202.033 70.3324 201.013 72.1337C200.036 73.893 198.825 75.3592 197.381 76.5321C196.233 77.4955 194.916 78.2286 193.429 78.7313C191.942 79.234 190.306 79.4853 188.522 79.4853C186.653 79.4853 184.974 79.213 183.487 78.6684C182.043 78.1239 180.747 77.3489 179.6 76.3436C178.368 75.2126 177.284 73.7464 176.35 71.9452C175.457 70.102 174.778 68.0704 174.31 65.8503C173.885 64.0909 173.588 62.1849 173.418 60.1324C173.248 58.0798 173.163 55.9434 173.163 53.7233V40.2767C173.163 37.9309 173.248 35.6898 173.418 33.5535C173.63 31.4171 173.949 29.4483 174.374 27.6471C174.926 25.3012 175.691 23.2487 176.668 21.4893C177.688 19.7299 178.92 18.2638 180.365 17.0909C181.427 16.295 182.616 15.6876 183.933 15.2687C185.293 14.8498 186.801 14.6404 188.458 14.6404C190.2 14.6404 191.772 14.8708 193.174 15.3316C194.619 15.7923 195.915 16.4416 197.062 17.2794C198.506 18.4104 199.76 19.8766 200.822 21.6778C201.884 23.4372 202.734 25.4479 203.371 27.7099C203.881 29.5111 204.242 31.4799 204.455 33.6163C204.709 35.7108 204.837 37.9309 204.837 40.2767Z" fill="black"/>
<path d="M82.9658 0.279297V14.7993H100.684V78.9561H82.9658V93.4121H136.824V78.9561H118.658V14.7993H136.824V0.279297H82.9658Z" fill="black"/>
<path d="M31.5986 58.6152L49.125 93.4121H68.3784V92.5806L48.3574 54.1377C50.916 52.9863 53.2188 51.6217 55.2656 50.0439C57.3551 48.4661 59.1462 46.6112 60.6387 44.479C62.0885 42.3895 63.1973 40.0228 63.9648 37.3789C64.7751 34.6924 65.1802 31.686 65.1802 28.3599C65.1802 23.7544 64.37 19.7033 62.7495 16.2065C61.1717 12.7098 58.9116 9.78874 55.9692 7.44336C52.9842 5.09798 49.4022 3.32829 45.2231 2.13428C41.0441 0.897624 36.3747 0.279297 31.2148 0.279297H0V93.4121H17.9741V58.6152H31.5986ZM17.9741 44.0312V14.8633H31.2148C33.6882 14.8633 35.8843 15.1618 37.8032 15.7588C39.7222 16.3558 41.3426 17.2087 42.6646 18.3174C44.1571 19.554 45.2658 21.1318 45.9907 23.0508C46.7583 24.9271 47.1421 27.1019 47.1421 29.5752C47.1421 31.6221 46.8436 33.4771 46.2466 35.1401C45.6922 36.8032 44.8607 38.2318 43.752 39.4258C42.43 40.9183 40.703 42.0697 38.5708 42.8799C36.4813 43.6475 34.0506 44.0312 31.2788 44.0312H17.9741Z" fill="black"/>
</g>
<defs>
<clipPath id="clip0_1094_87">
<rect width="300" height="200" fill="white"/>
</clipPath>
</defs>
</svg>
