<?xml version="1.0" standalone="no"?>
<!DOCTYPE svg PUBLIC "-//W3C//DTD SVG 20010904//EN"
 "http://www.w3.org/TR/2001/REC-SVG-20010904/DTD/svg10.dtd">
<svg version="1.0" xmlns="http://www.w3.org/2000/svg"
 width="700.000000pt" height="700.000000pt" viewBox="0 0 700.000000 700.000000"
 preserveAspectRatio="xMidYMid meet">
<metadata>
Created by potrace 1.11, written by Peter Selinger 2001-2013
</metadata>
<g transform="translate(0.000000,700.000000) scale(0.100000,-0.100000)"
fill="#000000" stroke="none">
<path d="M2746 6885 l7 -115 -1376 0 -1377 0 0 -630 0 -630 1383 0 1384 0 6
-212 c4 -116 7 -268 7 -338 l0 -127 -152 -7 c-179 -7 -371 -34 -518 -71 -511
-130 -863 -452 -976 -894 -31 -120 -43 -359 -25 -478 60 -382 245 -750 562
-1118 43 -49 310 -322 593 -605 l516 -515 0 -572 0 -573 2110 0 2110 0 0 211
0 211 -1322 1331 c-728 731 -1354 1355 -1393 1386 -203 164 -367 246 -559 278
-83 14 -117 15 -215 5 -106 -10 -126 -15 -229 -61 -96 -42 -126 -61 -199 -128
-91 -83 -176 -200 -214 -295 -11 -29 -24 -57 -28 -61 -12 -12 -238 229 -313
334 -66 93 -141 230 -153 280 -8 31 -3 33 100 56 54 12 163 16 478 20 l407 5
117 -27 c103 -24 130 -27 237 -22 77 3 150 12 200 26 75 20 102 21 535 21 251
0 510 5 576 10 529 45 959 230 1275 549 227 230 368 504 421 821 29 170 10
449 -41 613 l-19 62 27 22 c15 12 91 73 169 135 l142 113 1 553 0 552 -320 0
-320 0 -273 -220 c-200 -163 -277 -220 -292 -216 -11 2 -63 22 -116 44 -104
43 -268 92 -394 116 -195 38 -328 46 -806 46 l-466 0 -6 68 c-4 37 -7 88 -7
115 l0 47 -630 0 -630 0 6 -115z m1682 -1443 c-46 -37 -151 -122 -234 -189
l-152 -122 -6 31 c-3 17 -6 102 -6 189 l0 159 241 0 240 0 -83 -68z"/>
</g>
</svg>
